<svg version="1.1" id="Layer_1" xmlns="http://www.w3.org/2000/svg" xlink="http://www.w3.org/1999/xlink" x="0px" y="0px"
	 viewBox="0 0 1920 1080" style={{enableBackground:"new 0 0 1920 1080"}} space="preserve">
<g>
	<g>
		<rect x="166" y="103.8" class="st0r" width="1543.7" height="832.3"/>
		<g>
			<g>
				<g id="Layer_3">
					<circle id="_x3C_eyeBorder_x3E_" class="st1r" cx="929.5" cy="484.7" r="337.1"/>
				</g>
				<g id="Layer_4">
					<circle id="_x3C_RedColor_x3E_" class="st2r" cx="929.7" cy="485.5" r="337.1"/>
				</g>
				<g>
					<g id="_x3C_spin_x3E_">
						<circle id="_x3C_Path_id_x3D__x22_circle_x22__x3E_" class="st3r" cx="929.1" cy="477.9" r="213.2"/>
						<g id="_x3C_eyePointer3_x3E_">
							<ellipse transform="matrix(0.5979 -0.8016 0.8016 0.5979 -150.0656 1067.7954)" cx="989.2" cy="683.5" rx="45.6" ry="47.2"/>
							<path d="M1000.2,738.7c-28.7-2-42-11-51.4-32.9c-21.3-49.9,47.7-58.8,44.1-35.7c-12.3,77.7,154.8,32.5,111.9,47.3
								C1078.9,726.3,1028.9,740.8,1000.2,738.7z"/>
						</g>
						<g id="_x3C_eyePointer2_x3E_">
							
								<ellipse transform="matrix(0.9999 -1.152510e-02 1.152510e-02 0.9999 -5.3237 8.3622)" cx="722.9" cy="466.1" rx="47.2" ry="45.6"/>
							<path d="M680.8,428.7c24-15.8,40-16.8,60.8-5c47.4,26.6-2.2,75.7-13.3,55.1c-37.4-69.2-142.7,68.1-117.6,30.3
								C625.9,486.2,656.8,444.3,680.8,428.7z"/>
						</g>
						<g id="_x3C_eyePointer1_x3E_">
							<ellipse transform="matrix(0.5713 -0.8208 0.8208 0.5713 174.7362 1054.5171)" cx="1096.8" cy="360" rx="47.2" ry="45.6"/>
							<path d="M1151.6,347.5c-1.1,28.7-9.6,42.4-31.2,52.4c-49.3,22.9-60.4-45.8-37.2-42.9c78.2,9.7,27.4-155.8,43.7-113.4
								C1136.7,269.1,1152.8,318.7,1151.6,347.5z"/>
						</g>
					</g>
				</g>
				<g>
					<ellipse id="_x3C_eyeMiddle_x3E_" cx="930.2" cy="478.5" rx="61" ry="61"/>
				</g>
				<path id="_x3C_Compound_Path_id_x3D__x22_mangekyo_x22__x3E_" class="st4r" d="M723.8,684c35.8,39.3,104.3,55.5,104.3,55.5
					s79.1,20.8,171.9-28.9s116.2-138.3,116.2-138.3c54.1,10.1,86.2-13.7,86.2-13.7s35.9-12.3,8.8-122.3
					c-27-109.9-118.3-149.2-168-168.6c-49.7-19.4-122.9-6.2-122.9-6.2c-34.4-64.5-62.9-72.9-62.9-72.9
					c-115,30-179.4,155.9-168.5,250.3s61,149.1,61,149.1C706.5,654.2,723.7,684.1,723.8,684z M985.3,464.9
					c7.9,28.9-9,58.7-37.9,66.6s-58.7-9-66.6-37.9s9.1-58.7,37.9-66.6C947.6,419.1,977.4,436,985.3,464.9z M985.5,421.5
					c2.2-5.6-45.1-130.8-45.1-130.8c65.8,0.2,108.1,40.6,108.1,40.6c70,53.6,63.7,141.1,63.7,141.1
					C1061.5,439.3,985.4,421.5,985.5,421.5z M843.1,635.3c0,0,82.1-79.9,99-82.1l17.5-4.9c0,0,75.7,6.3,123.8,25.2
					c0,0-20.2,65.9-128.3,81.5C955.1,655,905.3,667.8,843.1,635.3z M757.2,409c0,0,26.6-62.3,78.3-89.4c0,0,7,79.7,24.1,129.9
					c0,0-60.2,49-91,109.9C768.6,559.4,724.6,463.2,757.2,409z"/>
			</g>
		</g>
		<g>
			<path id="_x3C_Compound_Path_id_x3D__x22_eyeLayout_x22__x3E_" class="st5r" d="M0,1080V0h1922.5v1080H0z M469.7,505
				C282.3,656.7,220.3,810,213.8,827.4l-25.2,58.3h56.2h0.3c40.6-15,150.7-17.1,289.7-19.8c230.7-4.4,546.6-10.6,703.4-85.2
				c164.6-59,273.3-213.7,335.7-333c67.1-129.5,96.1-246.4,96.4-247.4l0.3-2h-2c-49.4-2.3-98.8-3.7-146.2-3.7
				C968.9,194.6,644.5,363.3,469.7,505z"/>
		</g>
	</g>
</g>
</svg>
