<?xml version="1.0" encoding="utf-8"?>
<!-- Generator: Adobe Illustrator 23.0.1, SVG Export Plug-In . SVG Version: 6.00 Build 0)  -->
<svg version="1.1" id="Layer_1" xmlns="http://www.w3.org/2000/svg" xmlns:xlink="http://www.w3.org/1999/xlink" x="0px" y="0px"
	 viewBox="0 0 1920 1080" style="enable-background:new 0 0 1920 1080;" xml:space="preserve">
<style type="text/css">
	.st0{fill:none;stroke:#000000;stroke-width:30;stroke-miterlimit:10;}
	.st1{fill:#FF0606;stroke:#000000;stroke-width:30;stroke-miterlimit:10;}
	.st2{fill:none;stroke:#000000;stroke-width:23;stroke-miterlimit:10;}
	.st3{fill:#020000;stroke:#000000;stroke-miterlimit:10;}
	.st4{fill:none;stroke:#000000;stroke-width:3;stroke-miterlimit:10;}
</style>
<g>
	<g>
		<g id="Layer_3">
			<circle id="_x3C_eyeBorder_x3E_" class="st0" cx="942.9" cy="536.6" r="492.5"/>
		</g>
		<g id="Layer_4">
			<circle id="_x3C_RedColor_x3E_" class="st1" cx="944.4" cy="536.4" r="492.5"/>
		</g>
	</g>
</g>
<g>
	<path d="M851.3,760.8c0,0-113.3,2.7-181.2-127.5c0,0-37.1-112.1-8.4-188.1l-53.2-35.8c-52.7,110-0.7,238.2-0.7,238.2
		C651.1,805.1,853,919,853,919C824.9,861.4,823.1,812.4,851.3,760.8z"/>
	<path d="M794.6,317.4c0,0,53.7-92.7,200.3-84.9c0,0,115.4,25.1,166.1,88.6l58-27.6c-67.9-101.4-204.7-121.9-204.7-121.9
		c-157.2-43.2-364.7,73-360.1,72.2C663.6,241.9,777.6,264.5,794.6,317.4z"/>
	<path d="M1201.8,503c0,0,43,90.5-35.5,216c0,0-76.8,91.6-151.9,112.2l-6.9,61.2c113.6-21.3,197.3-133.4,197.3-133.4
		c111.7-121.8,124.6-340.4,124.6-340.4C1301,466,1258.2,493.4,1201.8,503z"/>
	<circle class="st2" cx="918.1" cy="843.3" r="94.8"/>
	
		<ellipse transform="matrix(0.7071 -0.7071 0.7071 0.7071 77.0309 986.6382)" class="st2" cx="1229.5" cy="400.3" rx="94.8" ry="94.8"/>
	<circle class="st2" cx="693.1" cy="344.4" r="94.8"/>
</g>
<circle class="st3" cx="936.2" cy="524.5" r="75"/>
<g>
	<g id="_x3C_spin_x3E_">
		<circle class="st4" cx="945.2" cy="527.1" r="311.5"/>
		<g id="_x3C_eyePointer3_x3E_">
			<ellipse transform="matrix(0.5277 -0.8494 0.8494 0.5277 -253.0011 1222.798)" cx="973.1" cy="838.9" rx="68.9" ry="66.6"/>
			<path d="M834.1,946.6c-66.3,2.7,185.1-24.9,126.9-124.1c-17.3-29.5,81.4-54.3,79,25.1c-1,34.8-14.5,54.1-52.3,72.2
				C949.9,938,874,945,834.1,946.6z"/>
		</g>
		<g id="_x3C_eyePointer2_x3E_">
			<ellipse transform="matrix(0.935 -0.3547 0.3547 0.935 -62.8899 458.4998)" cx="1219.3" cy="400.8" rx="68.9" ry="66.6"/>
			<path d="M1394.8,399.6c54.3,38.1-162.2-92.6-176.2,21.6c-4.1,34-97.7-6.3-47.5-67.9c22-27.1,44.3-34.3,85.4-25.7
				C1297.6,336.1,1362,376.6,1394.8,399.6z"/>
		</g>
		<g id="_x3C_eyePointer1_x3E_">
			<ellipse transform="matrix(0.5553 -0.8317 0.8317 0.5553 -88.5756 746.9155)" cx="654.1" cy="456.3" rx="66.6" ry="68.9"/>
			<path d="M551.1,314c-0.5-66.3,18.9,185.8,119.9,130.9c30-16.4,51.6,83.1-27.7,78.2c-34.7-2.1-53.6-16.2-70.5-54.6
				C555.9,430,551.3,354,551.1,314z"/>
		</g>
	</g>
</g>
</svg>
