<svg version="1.1" id="Layer_1" xmlns="http://www.w3.org/2000/svg" xlink="http://www.w3.org/1999/xlink" x="0px" y="0px"
	 viewBox="0 0 1920 1080" style={{enableBackground:"new 0 0 1920 1080"}} space="preserve">
<g>
	<g id="Layer_3">
		<circle id="eyeBorder" class="st0" cx="940.6" cy="538.8" r="492.5"/>
	</g>
	<g id="Layer_4">
		<circle id="RedColor" class="st1" cx="940.6" cy="540" r="492.5"/>
	</g>
	<g>
		<g id="spin">
			<circle class="st2" cx="938.5" cy="529" r="311.5"/>
			<g id="eyePointer3">
				<ellipse transform="matrix(0.6146 -0.7889 0.7889 0.6146 -304.5374 1060.7026)" cx="933.2" cy="842" rx="68.9" ry="66.6"/>
				<path d="M783.6,934.4c-66.2-4.3,186.7-5.2,139.3-110c-14.1-31.2,86.7-45.4,75.9,33.3c-4.7,34.5-20.1,52.3-59.6,66.3
					C899.7,938.1,823.5,937,783.6,934.4z"/>
			</g>
			<g id="eyePointer2">
				<ellipse transform="matrix(0.9673 -0.2538 0.2538 0.9673 -69.6511 324.8867)" cx="1224.4" cy="432.4" rx="68.9" ry="66.6"/>
				<path d="M1399.1,449.7c50,43.6-151.5-109.2-177.5,2.8c-7.7,33.4-96.5-16.6-40.1-72.5c24.7-24.6,47.7-29.4,87.6-16.5
					C1309.1,376.3,1368.9,423.4,1399.1,449.7z"/>
			</g>
			<g id="eyePointer1">
				<ellipse transform="matrix(0.6401 -0.7683 0.7683 0.6401 -92.406 658.3248)" cx="656.5" cy="427.8" rx="66.6" ry="68.9"/>
				<path d="M569.1,275.4c6.5-66-0.9,186.8,105.4,142.8c31.6-13.1,42.5,88.1-35.8,74.8c-34.3-5.8-51.6-21.8-64.3-61.7
					C561.6,391.3,565.1,315.2,569.1,275.4z"/>
			</g>
		</g>
	</g>
	<g>
		
			<ellipse id="eyeMiddle" transform="matrix(0.7071 -0.7071 0.7071 0.7071 -100.5104 817.9395)" cx="937.1" cy="530.3" rx="89.2" ry="89.2"/>
	</g>
</g>
</svg>
